<?xml version="1.0" encoding="utf-8"?>
<svg version="1.0" width="5000.000000pt" height="5000.000000pt" viewBox="0 0 5000.000000 5000.000000" preserveAspectRatio="xMidYMid meet" xmlns="http://www.w3.org/2000/svg">
  <g transform="matrix(0.224153, 0, 0, -0.224153, -3074.26001, 8273.125)" fill="#000000" stroke="none" style="">
    <path d="M24585 36674 c-688 -26 -1263 -91 -1850 -209 -1301 -262 -2469 -723 -3635 -1434 -86 -52 -422 -279 -585 -395 -714 -509 -1444 -1185 -2014 -1866 -756 -903 -1345 -1888 -1779 -2975 -717 -1795 -945 -3752 -661 -5660 261 -1753 934 -3397 1977 -4832 69 -95 128 -173 131 -173 3 1 63 74 132 163 69 89 365 469 657 845 293 375 532 686 532 692 0 5 -33 60 -74 122 -668 1026 -1140 2271 -1335 3518 -79 510 -105 854 -105 1410 0 531 19 802 90 1300 236 1659 949 3249 2029 4525 784 926 1710 1656 2782 2193 1662 833 3564 1116 5393 801 523 -90 1050 -230 1539 -410 109 -40 137 -47 147 -37 24 24 1204 1543 1204 1549 0 9 -422 175 -625 247 -971 342 -1934 539 -2965 607 -221 14 -809 26 -985 19z"/>
    <path d="M24540 32894 c-426 -28 -693 -61 -1036 -129 -689 -136 -1394 -388 -1984 -710 -215 -117 -232 -126 -365 -208 -278 -170 -563 -375 -827 -594 -216 -179 -461 -414 -664 -634 -570 -620 -1004 -1293 -1331 -2064 -768 -1809 -745 -3868 61 -5669 610 -1360 1630 -2492 2926 -3245 1217 -708 2647 -1039 4055 -940 1919 135 3703 1041 4939 2509 1240 1471 1831 3377 1641 5285 -215 2153 -1399 4091 -3215 5266 -972 629 -2074 1006 -3250 1115 -164 15 -811 27 -950 18z m-1590 -4069 c322 -3 608 -8 636 -11 63 -6 100 -29 150 -90 35 -43 1289 -1548 1943 -2332 134 -161 245 -291 247 -290 1 2 4 568 7 1258 4 1183 5 1257 22 1293 10 21 34 50 53 65 31 24 46 27 116 29 45 1 119 3 166 5 47 2 369 -1 715 -5 486 -7 641 -12 680 -22 51 -14 90 -47 116 -95 11 -21 13 -488 10 -2685 -3 -2974 3 -2727 -73 -2788 -34 -27 -47 -31 -138 -38 -55 -4 -128 -6 -163 -4 -34 1 -323 6 -642 10 -319 4 -614 8 -656 10 -95 3 -142 25 -183 83 -25 37 -367 460 -861 1067 -45 55 -276 341 -515 635 -238 294 -522 643 -629 775 l-196 240 -5 -1300 c-6 -1448 0 -1343 -75 -1400 -32 -25 -49 -29 -136 -36 -55 -4 -127 -6 -162 -4 -34 1 -323 6 -642 10 -319 4 -614 8 -656 10 -90 3 -139 23 -177 73 l-27 35 0 2686 c0 2607 1 2687 19 2724 10 21 35 50 54 65 33 25 43 27 156 30 66 1 122 5 125 8 3 3 35 3 71 0 36 -3 328 -8 650 -11z"/>
    <path d="M33394 32548 c-12 -12 -53 -63 -91 -113 -78 -102 -862 -1107 -1050 -1348 -117 -150 -134 -179 -114 -191 11 -7 205 -312 294 -461 700 -1183 1124 -2511 1242 -3895 75 -883 12 -1829 -181 -2700 -441 -1999 -1523 -3761 -3089 -5035 -1962 -1596 -4510 -2266 -6992 -1840 -573 99 -1074 235 -1637 445 -114 43 -141 49 -151 38 -7 -7 -140 -177 -296 -378 -156 -201 -442 -569 -636 -818 -194 -248 -353 -455 -353 -457 0 -14 446 -201 725 -305 1852 -688 3850 -862 5795 -505 1949 358 3784 1253 5270 2569 191 170 249 224 481 456 836 835 1520 1782 2048 2838 598 1194 982 2534 1105 3847 38 403 41 484 41 1055 -1 616 -8 760 -61 1225 -223 1959 -964 3808 -2160 5385 -56 74 -117 152 -136 173 l-33 39 -21 -24z"/>
  </g>
</svg>